<svg width="178" height="21" viewBox="0 0 178 21" fill="none" xmlns="http://www.w3.org/2000/svg">
<path d="M0.368 20L0.704 0.559999H5.312L7.448 11.864L9.752 0.559999H14.192L14.528 20H11.48L11.12 7.064L8.864 20H6.152L3.752 6.968L3.464 20H0.368ZM19.5944 20.24C18.8904 20.24 18.2984 20.072 17.8184 19.736C17.3384 19.4 16.9784 18.976 16.7384 18.464C16.4984 17.936 16.3784 17.4 16.3784 16.856C16.3784 15.992 16.5464 15.264 16.8824 14.672C17.2344 14.08 17.6904 13.584 18.2504 13.184C18.8104 12.784 19.4264 12.448 20.0984 12.176C20.7704 11.888 21.4344 11.632 22.0904 11.408V10.016C22.0904 9.776 22.0664 9.568 22.0184 9.392C21.9704 9.2 21.8904 9.056 21.7784 8.96C21.6664 8.848 21.4984 8.792 21.2744 8.792C21.0504 8.792 20.8744 8.84 20.7464 8.936C20.6344 9.032 20.5544 9.168 20.5064 9.344C20.4584 9.504 20.4264 9.688 20.4104 9.896L20.3144 10.904L16.6664 10.76C16.7464 9.096 17.1864 7.872 17.9864 7.088C18.8024 6.288 20.0184 5.888 21.6344 5.888C23.0424 5.888 24.0904 6.28 24.7784 7.064C25.4824 7.832 25.8344 8.832 25.8344 10.064V16.544C25.8344 17.12 25.8424 17.624 25.8584 18.056C25.8904 18.488 25.9224 18.864 25.9544 19.184C26.0024 19.504 26.0424 19.776 26.0744 20H22.5704C22.5224 19.632 22.4664 19.232 22.4024 18.8C22.3384 18.368 22.2904 18.112 22.2584 18.032C22.0984 18.608 21.7944 19.12 21.3464 19.568C20.9144 20.016 20.3304 20.24 19.5944 20.24ZM20.9864 17.6C21.1464 17.6 21.2904 17.568 21.4184 17.504C21.5624 17.44 21.6904 17.352 21.8024 17.24C21.9144 17.128 22.0104 17.016 22.0904 16.904V13.112C21.7704 13.304 21.4744 13.504 21.2024 13.712C20.9304 13.904 20.6984 14.12 20.5064 14.36C20.3144 14.6 20.1624 14.864 20.0504 15.152C19.9544 15.424 19.9064 15.736 19.9064 16.088C19.9064 16.552 20.0024 16.92 20.1944 17.192C20.3864 17.464 20.6504 17.6 20.9864 17.6ZM28.2095 20V6.128H32.1215V8.432C32.5695 7.632 33.0175 7.024 33.4655 6.608C33.9135 6.176 34.4575 5.96 35.0975 5.96C35.2255 5.96 35.3375 5.968 35.4335 5.984C35.5295 5.984 35.6175 6 35.6975 6.032V9.92C35.5215 9.84 35.3215 9.776 35.0975 9.728C34.8895 9.664 34.6655 9.632 34.4255 9.632C33.9775 9.632 33.5615 9.752 33.1775 9.992C32.7935 10.232 32.4415 10.56 32.1215 10.976V20H28.2095ZM37.373 20V6.128H41.285V20H37.373ZM37.349 3.776V1.064H41.285V3.776H37.349ZM46.1726 20.24C45.4686 20.24 44.8766 20.072 44.3966 19.736C43.9166 19.4 43.5566 18.976 43.3166 18.464C43.0766 17.936 42.9566 17.4 42.9566 16.856C42.9566 15.992 43.1246 15.264 43.4606 14.672C43.8126 14.08 44.2686 13.584 44.8286 13.184C45.3886 12.784 46.0046 12.448 46.6766 12.176C47.3486 11.888 48.0126 11.632 48.6686 11.408V10.016C48.6686 9.776 48.6446 9.568 48.5966 9.392C48.5486 9.2 48.4686 9.056 48.3566 8.96C48.2446 8.848 48.0766 8.792 47.8526 8.792C47.6286 8.792 47.4526 8.84 47.3246 8.936C47.2126 9.032 47.1326 9.168 47.0846 9.344C47.0366 9.504 47.0046 9.688 46.9886 9.896L46.8926 10.904L43.2446 10.76C43.3246 9.096 43.7646 7.872 44.5646 7.088C45.3806 6.288 46.5966 5.888 48.2126 5.888C49.6206 5.888 50.6686 6.28 51.3566 7.064C52.0606 7.832 52.4126 8.832 52.4126 10.064V16.544C52.4126 17.12 52.4206 17.624 52.4366 18.056C52.4686 18.488 52.5006 18.864 52.5326 19.184C52.5806 19.504 52.6206 19.776 52.6526 20H49.1486C49.1006 19.632 49.0446 19.232 48.9806 18.8C48.9166 18.368 48.8686 18.112 48.8366 18.032C48.6766 18.608 48.3726 19.12 47.9246 19.568C47.4926 20.016 46.9086 20.24 46.1726 20.24ZM47.5646 17.6C47.7246 17.6 47.8686 17.568 47.9966 17.504C48.1406 17.44 48.2686 17.352 48.3806 17.24C48.4926 17.128 48.5886 17.016 48.6686 16.904V13.112C48.3486 13.304 48.0526 13.504 47.7806 13.712C47.5086 13.904 47.2766 14.12 47.0846 14.36C46.8926 14.6 46.7406 14.864 46.6286 15.152C46.5326 15.424 46.4846 15.736 46.4846 16.088C46.4846 16.552 46.5806 16.92 46.7726 17.192C46.9646 17.464 47.2286 17.6 47.5646 17.6ZM63.6883 20L60.1843 0.559999H63.8563L65.9443 13.76L67.8883 0.559999H71.7762L68.2243 20H63.6883ZM74.8601 20.24C74.1561 20.24 73.5641 20.072 73.0841 19.736C72.6041 19.4 72.2441 18.976 72.0041 18.464C71.7641 17.936 71.6441 17.4 71.6441 16.856C71.6441 15.992 71.8121 15.264 72.1481 14.672C72.5001 14.08 72.9561 13.584 73.5161 13.184C74.0761 12.784 74.6921 12.448 75.3641 12.176C76.0361 11.888 76.7001 11.632 77.3561 11.408V10.016C77.3561 9.776 77.3321 9.568 77.2841 9.392C77.2361 9.2 77.1561 9.056 77.0441 8.96C76.9321 8.848 76.7641 8.792 76.5401 8.792C76.3161 8.792 76.1401 8.84 76.0121 8.936C75.9001 9.032 75.8201 9.168 75.7721 9.344C75.7241 9.504 75.6921 9.688 75.6761 9.896L75.5801 10.904L71.9321 10.76C72.0121 9.096 72.4521 7.872 73.2521 7.088C74.0681 6.288 75.2841 5.888 76.9001 5.888C78.3081 5.888 79.3561 6.28 80.0441 7.064C80.7481 7.832 81.1001 8.832 81.1001 10.064V16.544C81.1001 17.12 81.1081 17.624 81.1241 18.056C81.1561 18.488 81.1881 18.864 81.2201 19.184C81.2681 19.504 81.3081 19.776 81.3401 20H77.8361C77.7881 19.632 77.7321 19.232 77.6681 18.8C77.6041 18.368 77.5561 18.112 77.5241 18.032C77.3641 18.608 77.0601 19.12 76.6121 19.568C76.1801 20.016 75.5961 20.24 74.8601 20.24ZM76.2521 17.6C76.4121 17.6 76.5561 17.568 76.6841 17.504C76.8281 17.44 76.9561 17.352 77.0681 17.24C77.1801 17.128 77.2761 17.016 77.3561 16.904V13.112C77.0361 13.304 76.7401 13.504 76.4681 13.712C76.1961 13.904 75.9641 14.12 75.7721 14.36C75.5801 14.6 75.4281 14.864 75.3161 15.152C75.2201 15.424 75.1721 15.736 75.1721 16.088C75.1721 16.552 75.2681 16.92 75.4601 17.192C75.6521 17.464 75.9161 17.6 76.2521 17.6ZM87.6991 20.24C86.4831 20.24 85.4671 19.968 84.6511 19.424C83.8511 18.88 83.1951 17.992 82.6831 16.76L85.3471 15.584C85.6031 16.208 85.8991 16.704 86.2351 17.072C86.5871 17.424 86.9711 17.6 87.3871 17.6C87.6911 17.6 87.9151 17.536 88.0591 17.408C88.2191 17.28 88.2991 17.104 88.2991 16.88C88.2991 16.512 88.1551 16.176 87.8671 15.872C87.5951 15.568 87.0991 15.12 86.3791 14.528L85.3711 13.688C84.6351 13.064 84.0511 12.464 83.6191 11.888C83.2031 11.296 82.9951 10.568 82.9951 9.704C82.9951 8.952 83.1871 8.288 83.5711 7.712C83.9711 7.136 84.4991 6.688 85.1551 6.368C85.8111 6.048 86.5151 5.888 87.2671 5.888C88.4191 5.888 89.3791 6.2 90.1471 6.824C90.9151 7.448 91.4591 8.328 91.7791 9.464L89.2111 10.616C89.1151 10.312 88.9791 10.008 88.8031 9.704C88.6271 9.4 88.4191 9.144 88.1791 8.936C87.9391 8.728 87.6671 8.624 87.3631 8.624C87.1071 8.624 86.8991 8.696 86.7391 8.84C86.5951 8.984 86.5231 9.176 86.5231 9.416C86.5231 9.72 86.6911 10.048 87.0271 10.4C87.3791 10.752 87.8591 11.176 88.4671 11.672L89.4511 12.536C89.8511 12.872 90.2431 13.232 90.6271 13.616C91.0111 14 91.3231 14.424 91.5631 14.888C91.8191 15.352 91.9471 15.88 91.9471 16.472C91.9471 17.272 91.7471 17.96 91.3471 18.536C90.9471 19.096 90.4191 19.52 89.7631 19.808C89.1231 20.096 88.4351 20.24 87.6991 20.24ZM98.111 20.24C97.103 20.24 96.239 20.056 95.519 19.688C94.815 19.32 94.271 18.792 93.887 18.104C93.503 17.416 93.311 16.584 93.311 15.608V10.52C93.311 9.528 93.503 8.688 93.887 8C94.271 7.312 94.815 6.792 95.519 6.44C96.239 6.072 97.103 5.888 98.111 5.888C99.103 5.888 99.943 6.04 100.631 6.344C101.335 6.648 101.871 7.112 102.239 7.736C102.607 8.344 102.791 9.12 102.791 10.064V11.528H99.023V9.944C99.023 9.576 98.983 9.296 98.903 9.104C98.839 8.896 98.735 8.752 98.591 8.672C98.463 8.592 98.303 8.552 98.111 8.552C97.919 8.552 97.759 8.608 97.631 8.72C97.503 8.816 97.407 8.984 97.343 9.224C97.279 9.448 97.247 9.768 97.247 10.184V15.944C97.247 16.568 97.319 16.992 97.463 17.216C97.623 17.44 97.847 17.552 98.135 17.552C98.343 17.552 98.511 17.512 98.639 17.432C98.767 17.336 98.863 17.192 98.927 17C98.991 16.792 99.023 16.52 99.023 16.184V14.336H102.791V16.016C102.791 16.944 102.599 17.728 102.215 18.368C101.847 18.992 101.311 19.464 100.607 19.784C99.919 20.088 99.087 20.24 98.111 20.24ZM109.386 20.24C108.394 20.24 107.53 20.072 106.794 19.736C106.074 19.4 105.514 18.896 105.114 18.224C104.73 17.552 104.538 16.712 104.538 15.704V10.424C104.538 9.416 104.73 8.576 105.114 7.904C105.514 7.232 106.074 6.728 106.794 6.392C107.53 6.056 108.394 5.888 109.386 5.888C110.378 5.888 111.234 6.056 111.954 6.392C112.69 6.728 113.258 7.232 113.658 7.904C114.058 8.576 114.258 9.416 114.258 10.424V15.704C114.258 16.712 114.058 17.552 113.658 18.224C113.258 18.896 112.69 19.4 111.954 19.736C111.234 20.072 110.378 20.24 109.386 20.24ZM109.41 17.648C109.666 17.648 109.866 17.584 110.01 17.456C110.154 17.312 110.25 17.12 110.298 16.88C110.362 16.624 110.394 16.32 110.394 15.968V10.16C110.394 9.808 110.362 9.512 110.298 9.272C110.25 9.016 110.154 8.824 110.01 8.696C109.866 8.552 109.666 8.48 109.41 8.48C109.154 8.48 108.954 8.552 108.81 8.696C108.666 8.824 108.562 9.016 108.498 9.272C108.434 9.512 108.402 9.808 108.402 10.16V15.968C108.402 16.32 108.434 16.624 108.498 16.88C108.562 17.12 108.666 17.312 108.81 17.456C108.954 17.584 109.154 17.648 109.41 17.648ZM116.427 20V6.128H120.339V7.52C120.851 7.008 121.379 6.608 121.923 6.32C122.483 6.032 123.067 5.888 123.675 5.888C124.251 5.888 124.723 6.032 125.091 6.32C125.475 6.592 125.763 6.976 125.955 7.472C126.147 7.952 126.243 8.504 126.243 9.128V20H122.355V9.68C122.355 9.344 122.299 9.088 122.187 8.912C122.075 8.736 121.867 8.648 121.563 8.648C121.403 8.648 121.211 8.696 120.987 8.792C120.779 8.872 120.563 8.992 120.339 9.152V20H116.427ZM133.103 20.24C132.095 20.24 131.231 20.056 130.511 19.688C129.807 19.32 129.263 18.792 128.879 18.104C128.495 17.416 128.303 16.584 128.303 15.608V10.52C128.303 9.528 128.495 8.688 128.879 8C129.263 7.312 129.807 6.792 130.511 6.44C131.231 6.072 132.095 5.888 133.103 5.888C134.095 5.888 134.935 6.04 135.623 6.344C136.327 6.648 136.863 7.112 137.231 7.736C137.599 8.344 137.783 9.12 137.783 10.064V11.528H134.015V9.944C134.015 9.576 133.975 9.296 133.895 9.104C133.831 8.896 133.727 8.752 133.583 8.672C133.455 8.592 133.295 8.552 133.103 8.552C132.911 8.552 132.751 8.608 132.623 8.72C132.495 8.816 132.399 8.984 132.335 9.224C132.271 9.448 132.239 9.768 132.239 10.184V15.944C132.239 16.568 132.311 16.992 132.455 17.216C132.615 17.44 132.839 17.552 133.127 17.552C133.335 17.552 133.503 17.512 133.631 17.432C133.759 17.336 133.855 17.192 133.919 17C133.983 16.792 134.015 16.52 134.015 16.184V14.336H137.783V16.016C137.783 16.944 137.591 17.728 137.207 18.368C136.839 18.992 136.303 19.464 135.599 19.784C134.911 20.088 134.079 20.24 133.103 20.24ZM144.354 20.24C143.346 20.24 142.482 20.064 141.762 19.712C141.042 19.344 140.49 18.816 140.106 18.128C139.722 17.424 139.53 16.584 139.53 15.608V10.52C139.53 9.528 139.722 8.688 140.106 8C140.49 7.312 141.042 6.792 141.762 6.44C142.498 6.072 143.362 5.888 144.354 5.888C145.378 5.888 146.226 6.064 146.898 6.416C147.586 6.768 148.098 7.288 148.434 7.976C148.786 8.664 148.962 9.512 148.962 10.52V13.304H143.394V15.968C143.394 16.32 143.434 16.608 143.514 16.832C143.594 17.056 143.706 17.216 143.85 17.312C143.994 17.408 144.162 17.456 144.354 17.456C144.546 17.456 144.714 17.416 144.858 17.336C145.018 17.24 145.138 17.096 145.218 16.904C145.314 16.712 145.362 16.448 145.362 16.112V14.648H148.962V15.992C148.962 17.4 148.554 18.464 147.738 19.184C146.922 19.888 145.794 20.24 144.354 20.24ZM143.394 11.48H145.362V10.088C145.362 9.72 145.314 9.432 145.218 9.224C145.138 9.016 145.018 8.872 144.858 8.792C144.714 8.712 144.538 8.672 144.33 8.672C144.138 8.672 143.97 8.72 143.826 8.816C143.698 8.912 143.594 9.08 143.514 9.32C143.434 9.544 143.394 9.872 143.394 10.304V11.48ZM151.259 20V0.559999H155.147V20H151.259ZM162.237 20.24C161.245 20.24 160.381 20.072 159.645 19.736C158.925 19.4 158.365 18.896 157.965 18.224C157.581 17.552 157.389 16.712 157.389 15.704V10.424C157.389 9.416 157.581 8.576 157.965 7.904C158.365 7.232 158.925 6.728 159.645 6.392C160.381 6.056 161.245 5.888 162.237 5.888C163.229 5.888 164.085 6.056 164.805 6.392C165.541 6.728 166.109 7.232 166.509 7.904C166.909 8.576 167.109 9.416 167.109 10.424V15.704C167.109 16.712 166.909 17.552 166.509 18.224C166.109 18.896 165.541 19.4 164.805 19.736C164.085 20.072 163.229 20.24 162.237 20.24ZM162.261 17.648C162.517 17.648 162.717 17.584 162.861 17.456C163.005 17.312 163.101 17.12 163.149 16.88C163.213 16.624 163.245 16.32 163.245 15.968V10.16C163.245 9.808 163.213 9.512 163.149 9.272C163.101 9.016 163.005 8.824 162.861 8.696C162.717 8.552 162.517 8.48 162.261 8.48C162.005 8.48 161.805 8.552 161.661 8.696C161.517 8.824 161.413 9.016 161.349 9.272C161.285 9.512 161.253 9.808 161.253 10.16V15.968C161.253 16.32 161.285 16.624 161.349 16.88C161.413 17.12 161.517 17.312 161.661 17.456C161.805 17.584 162.005 17.648 162.261 17.648ZM173.551 20.24C172.335 20.24 171.319 19.968 170.503 19.424C169.703 18.88 169.047 17.992 168.535 16.76L171.199 15.584C171.455 16.208 171.751 16.704 172.087 17.072C172.439 17.424 172.823 17.6 173.239 17.6C173.543 17.6 173.767 17.536 173.911 17.408C174.071 17.28 174.151 17.104 174.151 16.88C174.151 16.512 174.007 16.176 173.719 15.872C173.447 15.568 172.951 15.12 172.231 14.528L171.223 13.688C170.487 13.064 169.903 12.464 169.471 11.888C169.055 11.296 168.847 10.568 168.847 9.704C168.847 8.952 169.039 8.288 169.423 7.712C169.823 7.136 170.351 6.688 171.007 6.368C171.663 6.048 172.367 5.888 173.119 5.888C174.271 5.888 175.231 6.2 175.999 6.824C176.767 7.448 177.311 8.328 177.631 9.464L175.063 10.616C174.967 10.312 174.831 10.008 174.655 9.704C174.479 9.4 174.271 9.144 174.031 8.936C173.791 8.728 173.519 8.624 173.215 8.624C172.959 8.624 172.751 8.696 172.591 8.84C172.447 8.984 172.375 9.176 172.375 9.416C172.375 9.72 172.543 10.048 172.879 10.4C173.231 10.752 173.711 11.176 174.319 11.672L175.303 12.536C175.703 12.872 176.095 13.232 176.479 13.616C176.863 14 177.175 14.424 177.415 14.888C177.671 15.352 177.799 15.88 177.799 16.472C177.799 17.272 177.599 17.96 177.199 18.536C176.799 19.096 176.271 19.52 175.615 19.808C174.975 20.096 174.287 20.24 173.551 20.24Z" fill="#EEEEEE"/>
</svg>
